<?xml version="1.0" standalone="no"?>
<!DOCTYPE svg PUBLIC "-//W3C//DTD SVG 20010904//EN"
 "http://www.w3.org/TR/2001/REC-SVG-20010904/DTD/svg10.dtd">
<svg version="1.0" xmlns="http://www.w3.org/2000/svg"
 width="1080.000000pt" height="1080.000000pt" viewBox="0 0 1080.000000 1080.000000"
 preserveAspectRatio="xMidYMid meet">
<metadata>
Created by potrace 1.14, written by Peter Selinger 2001-2017
</metadata>
<g transform="translate(0.000000,1080.000000) scale(0.100000,-0.100000)"
fill="#000000" stroke="none">
<path d="M4383 9654 c-3 -7 -15 -11 -30 -8 -14 3 -31 0 -37 -5 -7 -6 -23 -12
-35 -14 -13 -2 -26 -9 -30 -16 -5 -7 -11 -11 -14 -9 -11 5 -57 -34 -51 -43 3
-5 1 -9 -4 -9 -14 0 -62 -122 -66 -167 0 -11 -4 -19 -8 -17 -4 2 -9 0 -13 -6
-3 -5 0 -10 7 -10 9 0 10 -3 2 -8 -6 -4 -10 -15 -8 -24 1 -10 -2 -18 -7 -18
-6 0 -7 -4 -4 -10 3 -5 1 -19 -5 -30 -8 -14 -8 -20 0 -20 7 0 8 -5 3 -12 -4
-7 -9 -53 -9 -101 -1 -49 -4 -91 -8 -94 -3 -3 2 -12 12 -20 9 -8 11 -11 3 -7
-11 5 -13 2 -9 -14 4 -13 1 -22 -5 -22 -8 0 -8 -3 0 -11 6 -6 9 -18 6 -25 -3
-8 1 -14 8 -14 9 0 10 -3 4 -8 -11 -8 -15 -63 -4 -57 3 3 7 -8 8 -23 4 -59 7
-78 15 -90 4 -7 6 -16 3 -18 -2 -3 -1 -22 5 -42 8 -34 18 -80 22 -109 1 -7 5
-16 9 -19 4 -4 7 -19 7 -34 0 -14 6 -32 13 -39 10 -11 9 -12 -3 -6 -10 6 -8 1
4 -13 12 -14 14 -22 7 -22 -7 0 -10 -4 -6 -9 3 -5 -9 -8 -27 -7 -18 2 -39 -1
-45 -7 -9 -6 -13 -6 -13 2 0 7 -5 9 -12 5 -7 -5 -25 -7 -40 -6 -16 1 -28 -3
-28 -9 0 -8 -4 -8 -14 0 -11 9 -16 9 -23 -1 -4 -8 -15 -14 -23 -14 -26 -1 -81
-30 -73 -39 5 -4 3 -5 -4 -2 -16 10 -44 -3 -36 -17 3 -6 3 -8 -2 -4 -9 9 -85
-29 -85 -42 0 -5 -7 -7 -15 -4 -8 4 -15 1 -15 -5 0 -5 -20 -22 -45 -37 -25
-14 -45 -30 -45 -35 0 -5 -7 -9 -15 -9 -9 0 -18 -7 -21 -15 -4 -8 -12 -15 -18
-15 -7 0 -26 -13 -42 -30 -16 -16 -34 -30 -39 -30 -6 0 -16 -9 -23 -20 -7 -12
-17 -18 -22 -15 -5 3 -11 -4 -15 -15 -3 -11 -12 -19 -18 -17 -7 1 -11 -4 -9
-10 1 -7 -5 -13 -13 -13 -9 0 -18 -7 -21 -15 -4 -8 -10 -13 -14 -10 -5 3 -12
-4 -15 -16 -4 -11 -9 -18 -12 -15 -3 2 -22 -12 -43 -32 -21 -20 -65 -61 -98
-91 -34 -30 -59 -58 -56 -63 3 -4 -4 -8 -15 -8 -11 0 -22 -9 -26 -20 -4 -11
-11 -18 -16 -15 -5 4 -9 1 -9 -4 0 -6 -9 -20 -20 -31 -11 -11 -20 -17 -20 -14
0 3 -24 -19 -53 -50 -29 -31 -56 -56 -59 -56 -11 0 -88 -80 -88 -91 0 -6 -4
-8 -9 -5 -5 3 -19 -7 -32 -23 -13 -16 -27 -28 -30 -25 -4 2 -10 -5 -14 -16 -3
-11 -10 -20 -15 -20 -16 0 -60 -47 -52 -55 4 -5 2 -5 -4 -2 -6 4 -28 -12 -48
-34 -20 -22 -36 -38 -36 -35 0 3 -8 -2 -18 -11 -11 -10 -17 -21 -15 -25 2 -5
-3 -8 -11 -8 -9 0 -16 -4 -16 -8 0 -5 -11 -15 -25 -22 -15 -8 -23 -20 -20 -27
2 -8 0 -11 -5 -8 -5 3 -18 -3 -30 -15 -11 -11 -23 -20 -26 -20 -4 0 -17 -11
-30 -26 -13 -14 -24 -22 -24 -18 0 4 -11 -5 -24 -19 -13 -14 -26 -24 -28 -21
-3 2 -17 -7 -32 -21 -15 -14 -31 -25 -37 -25 -5 0 -9 -3 -9 -7 0 -5 -27 -25
-60 -47 -33 -21 -60 -42 -60 -47 0 -5 -7 -6 -15 -3 -8 4 -17 -1 -21 -10 -3 -9
-12 -16 -20 -16 -7 0 -17 -8 -23 -17 -5 -10 -11 -17 -13 -15 -8 8 -37 -11 -31
-21 3 -5 1 -7 -5 -3 -6 3 -13 2 -17 -4 -4 -6 -11 -8 -16 -5 -5 4 -9 1 -9 -4 0
-6 -7 -11 -15 -11 -9 0 -18 -7 -21 -15 -4 -8 -11 -12 -17 -8 -5 3 -15 -1 -21
-9 -6 -8 -15 -16 -21 -17 -30 -4 -75 -24 -70 -30 2 -5 -6 -7 -18 -7 -12 1 -27
-1 -32 -5 -6 -5 -28 -9 -49 -11 -20 -1 -40 -6 -42 -10 -3 -5 -10 -5 -17 -1 -6
3 -25 8 -41 9 -72 6 -86 9 -86 16 0 4 -9 5 -20 3 -11 -2 -19 1 -17 8 1 6 -2
12 -8 12 -20 3 -50 19 -63 34 -11 13 -12 13 -6 1 4 -9 -1 -7 -14 5 -36 34 -51
45 -62 45 -5 0 -10 5 -10 11 0 5 -4 7 -10 4 -5 -3 -10 0 -10 7 0 7 -13 22 -29
33 -16 10 -27 23 -24 28 3 5 -4 15 -16 23 -12 9 -19 20 -16 25 4 5 -1 9 -9 9
-14 0 -20 12 -17 33 0 4 -6 7 -15 7 -8 0 -13 4 -10 9 3 5 -1 11 -9 15 -8 3
-15 12 -15 21 0 8 -4 15 -8 15 -4 0 -16 14 -25 30 -10 17 -25 30 -33 30 -8 0
-14 5 -14 10 0 19 -4 25 -29 45 -14 10 -28 22 -31 25 -11 12 -60 40 -60 34 0
-4 -6 -2 -13 3 -6 6 -20 9 -30 8 -9 -2 -17 1 -17 6 0 6 -6 7 -12 2 -7 -4 -23
-7 -35 -8 -12 0 -25 -3 -29 -7 -12 -13 -26 -9 -19 5 4 6 0 4 -8 -5 -8 -10 -22
-18 -31 -18 -9 0 -16 -5 -16 -12 0 -6 -3 -9 -6 -5 -3 3 -20 -7 -37 -23 -18
-16 -43 -38 -56 -49 -13 -12 -21 -21 -18 -21 4 0 -1 -8 -10 -18 -10 -11 -21
-17 -26 -15 -4 3 -7 1 -6 -4 3 -20 -2 -34 -11 -28 -5 3 -10 -1 -10 -10 0 -9
-4 -13 -10 -10 -5 3 -10 -3 -10 -15 0 -14 -4 -19 -12 -14 -8 5 -9 2 -5 -10 4
-9 3 -15 -1 -13 -8 5 -39 -25 -34 -33 5 -7 -31 -60 -40 -60 -5 0 -8 -5 -8 -11
0 -5 6 -7 13 -3 6 4 3 -3 -7 -15 -11 -12 -21 -30 -22 -39 -2 -9 -8 -18 -14
-20 -5 -2 -8 -8 -4 -13 3 -5 0 -9 -6 -9 -6 0 -8 -4 -5 -10 3 -5 2 -10 -4 -10
-6 0 -8 -7 -5 -15 4 -8 2 -15 -4 -15 -8 0 -25 -54 -19 -64 1 -2 -5 -12 -14
-22 -9 -11 -17 -26 -18 -34 -2 -33 -7 -56 -15 -68 -4 -6 -4 -16 -1 -22 3 -5 2
-10 -4 -10 -6 0 -9 -13 -7 -30 2 -16 -1 -30 -6 -30 -6 0 -8 -9 -5 -20 3 -11 2
-20 -1 -20 -4 0 -8 -17 -9 -38 -1 -20 -4 -48 -5 -62 -2 -14 0 -35 4 -47 4 -13
4 -23 0 -23 -4 0 -8 -9 -8 -20 0 -11 4 -20 9 -20 5 0 5 -6 -2 -13 -8 -10 -7
-17 1 -25 9 -9 9 -12 -1 -12 -10 0 -11 -3 -2 -13 8 -10 7 -17 -1 -25 -9 -9 -9
-12 2 -12 13 0 13 -2 0 -10 -8 -5 -10 -10 -4 -10 9 0 15 -37 17 -107 1 -13 4
-23 8 -23 5 0 6 -9 4 -20 -2 -11 2 -20 8 -20 9 0 9 -2 0 -8 -7 -5 -9 -13 -3
-21 4 -8 6 -20 3 -28 -3 -7 0 -13 6 -13 6 0 10 -3 10 -7 -1 -5 0 -10 1 -13 1
-3 3 -18 4 -35 2 -16 7 -48 11 -70 4 -22 8 -46 8 -52 0 -7 4 -13 9 -13 4 0 8
-13 8 -28 0 -16 3 -32 8 -36 4 -4 8 -12 8 -17 1 -5 2 -10 4 -11 2 -4 11 -41
12 -55 1 -7 6 -13 11 -13 5 0 7 -7 3 -15 -3 -8 -1 -15 4 -15 6 0 10 -9 10 -20
0 -11 6 -23 14 -26 8 -3 12 -12 10 -19 -3 -7 0 -16 5 -20 6 -3 9 -11 6 -16 -4
-5 -2 -9 2 -9 5 0 17 -18 27 -40 10 -22 22 -40 27 -40 5 0 9 -7 9 -16 0 -8 13
-29 29 -45 16 -16 26 -29 23 -29 -4 -1 3 -9 15 -19 12 -10 20 -21 17 -24 -3
-3 4 -8 15 -12 12 -3 21 -14 21 -22 0 -9 3 -13 7 -10 3 4 16 -5 29 -18 13 -14
25 -25 28 -25 6 0 37 -24 61 -47 8 -7 18 -13 24 -13 6 0 11 -4 11 -9 0 -5 13
-14 30 -21 16 -7 27 -17 23 -23 -3 -5 -1 -7 5 -3 6 3 18 -1 27 -10 9 -9 19
-14 22 -10 3 3 11 -1 17 -10 6 -8 21 -16 33 -17 12 0 19 -5 17 -9 -3 -4 0 -8
6 -8 16 0 104 -43 112 -54 5 -7 8 -5 8 4 0 10 3 11 8 4 6 -10 35 -23 65 -30 4
-1 9 -3 12 -4 3 -1 10 -4 15 -5 6 -1 12 -4 15 -5 3 -1 8 -3 13 -4 10 -2 83
-26 102 -33 18 -7 34 -10 78 -14 17 -2 32 -7 32 -12 0 -5 9 -6 19 -2 11 3 22
1 25 -4 4 -5 15 -8 26 -6 11 2 20 -1 20 -7 0 -7 6 -6 15 2 9 7 15 8 15 2 0
-10 26 -16 108 -28 50 -7 77 -12 77 -14 0 -3 114 -13 162 -14 29 0 53 -4 53
-9 0 -5 7 -4 15 3 11 9 19 10 28 1 10 -8 17 -7 25 1 9 9 12 9 12 -1 0 -7 5 -9
10 -6 5 3 10 1 10 -5 0 -6 4 -9 8 -6 9 5 11 -2 14 -49 1 -14 5 -25 8 -25 5 0
9 -23 11 -72 0 -10 4 -18 7 -18 4 0 9 -15 10 -33 2 -17 7 -33 11 -35 5 -2 7
-11 4 -21 -3 -10 0 -22 6 -25 5 -4 8 -13 4 -21 -3 -8 0 -15 5 -15 6 0 9 -9 7
-20 -2 -11 0 -20 5 -20 5 0 7 -7 4 -15 -4 -8 -1 -15 6 -15 9 0 9 -4 2 -13 -8
-10 -6 -16 9 -25 18 -11 19 -16 7 -29 -7 -9 -8 -14 -2 -10 7 4 14 -3 18 -18 3
-13 11 -37 18 -52 6 -15 13 -37 15 -48 2 -11 8 -21 13 -23 5 -2 6 -10 3 -18
-3 -8 0 -14 7 -14 6 0 8 -5 5 -10 -3 -6 -1 -10 4 -10 6 0 11 -8 11 -18 0 -10
7 -27 15 -38 8 -12 12 -24 8 -27 -3 -4 1 -9 10 -13 9 -3 13 -12 10 -20 -3 -8
0 -14 7 -14 6 0 9 -4 6 -8 -7 -12 25 -73 35 -66 5 3 8 2 7 -3 -4 -14 13 -53
23 -53 5 0 9 -3 8 -7 -2 -14 13 -53 21 -53 8 0 34 -52 31 -63 -1 -5 2 -6 6 -4
9 6 27 -13 31 -33 2 -8 7 -17 10 -20 4 -3 18 -22 32 -42 14 -21 29 -38 33 -38
5 0 5 -5 2 -10 -3 -6 1 -13 9 -16 9 -3 16 -11 16 -18 0 -6 9 -18 19 -26 11 -7
18 -17 15 -22 -3 -4 2 -8 11 -8 9 0 14 -4 10 -9 -3 -5 -1 -12 5 -16 6 -4 7
-11 4 -17 -5 -7 -2 -8 5 -4 8 5 14 0 18 -13 3 -11 9 -18 14 -15 5 3 12 -3 16
-13 10 -26 50 -63 59 -55 4 4 4 2 1 -4 -4 -7 14 -33 41 -60 26 -27 46 -52 45
-56 -2 -4 4 -5 13 -1 8 3 14 1 12 -5 -3 -10 56 -69 161 -160 29 -26 68 -61 86
-79 18 -17 36 -29 39 -26 3 4 6 0 6 -7 0 -7 3 -11 6 -8 3 3 15 -4 28 -16 53
-49 85 -76 90 -76 6 0 36 -24 62 -48 8 -7 14 -10 14 -6 0 3 7 1 15 -6 8 -7 12
-16 9 -21 -3 -5 -1 -9 4 -9 5 0 9 -7 9 -15 0 -10 -4 -12 -12 -5 -9 7 -18 3
-30 -14 -11 -14 -23 -23 -27 -20 -4 3 -11 -2 -14 -10 -3 -9 -10 -14 -15 -11
-4 3 -13 -4 -19 -15 -6 -11 -18 -20 -26 -20 -8 0 -13 -4 -9 -9 3 -5 -4 -12
-15 -16 -11 -4 -18 -11 -15 -16 4 -5 -1 -9 -9 -9 -8 0 -21 -9 -29 -20 -8 -11
-17 -17 -20 -13 -4 3 -7 -1 -7 -11 0 -9 -3 -15 -7 -13 -10 6 -34 -19 -26 -27
4 -3 1 -6 -6 -6 -16 0 -87 -70 -83 -82 2 -6 -4 -8 -13 -5 -8 4 -15 2 -15 -3 0
-13 -118 -129 -124 -122 -3 3 -6 -5 -6 -18 0 -13 -3 -20 -6 -17 -4 4 -18 -8
-33 -26 -34 -43 -50 -62 -84 -97 -16 -17 -26 -30 -22 -30 5 0 0 -8 -30 -43 -6
-7 -26 -34 -45 -62 -19 -27 -37 -52 -42 -53 -4 -2 -8 -9 -8 -16 0 -7 -10 -24
-22 -38 -13 -14 -24 -31 -26 -39 -2 -8 -9 -17 -15 -21 -7 -4 -7 -8 -2 -8 6 0
1 -7 -9 -15 -11 -8 -16 -15 -10 -15 5 0 2 -6 -7 -13 -9 -7 -17 -16 -18 -22 -6
-23 -42 -94 -51 -100 -5 -3 -6 -13 -3 -23 3 -9 3 -14 -2 -10 -12 12 -45 -35
-34 -49 7 -8 6 -14 -4 -20 -7 -4 -19 -24 -27 -43 -7 -19 -20 -41 -28 -48 -13
-10 -13 -12 -1 -12 9 0 10 -3 3 -8 -16 -11 -45 -73 -38 -83 3 -5 1 -9 -5 -9
-6 0 -13 -16 -17 -35 -3 -19 -10 -32 -15 -29 -5 3 -9 -4 -9 -15 0 -12 -6 -21
-12 -21 -9 0 -8 -3 2 -10 12 -8 12 -10 -2 -15 -9 -4 -15 -14 -14 -23 2 -9 -3
-23 -11 -31 -8 -7 -12 -20 -9 -28 3 -8 2 -12 -2 -9 -4 2 -12 -7 -19 -20 -8
-18 -8 -22 0 -17 9 5 9 3 1 -8 -12 -16 -55 -130 -54 -142 1 -5 -7 -15 -17 -24
-10 -8 -12 -12 -6 -8 7 3 13 1 13 -4 0 -6 -5 -11 -10 -11 -6 0 -10 -6 -9 -13
2 -12 -6 -40 -20 -67 -5 -9 -12 -31 -17 -50 -10 -43 -9 -41 -17 -62 -24 -64
-26 -68 -29 -93 -2 -11 -7 -23 -13 -27 -5 -4 -10 -15 -10 -25 -2 -40 -18 -103
-27 -103 -5 0 -6 -4 -3 -10 3 -5 1 -19 -6 -31 -9 -17 -8 -20 3 -13 10 6 11 5
1 -7 -11 -13 -23 -55 -25 -86 -1 -7 -4 -13 -8 -13 -4 0 -6 -13 -5 -30 1 -16
-2 -30 -6 -30 -4 0 -6 -11 -4 -25 1 -14 -3 -25 -9 -25 -6 0 -4 -5 4 -10 10 -6
11 -10 3 -10 -7 0 -13 -4 -13 -10 0 -7 1192 -10 3555 -10 l3555 0 -2 30 c-1
16 -5 30 -8 30 -3 0 -5 18 -5 41 0 26 -5 44 -15 49 -11 7 -12 9 -1 10 9 0 10
4 4 13 -6 6 -11 20 -12 30 -1 9 -2 26 -3 37 -1 11 -5 20 -8 20 -5 0 -10 33
-13 78 0 6 -4 12 -8 12 -4 0 -6 14 -5 30 1 17 -1 30 -4 30 -4 0 -12 12 -18 26
-7 14 -8 23 -3 19 6 -3 2 19 -9 50 -10 30 -17 55 -15 55 2 0 -2 12 -10 26 -7
15 -12 35 -10 45 2 11 -1 19 -7 19 -5 0 -8 7 -4 15 3 8 -2 19 -12 24 -14 8
-14 10 -2 11 12 0 12 2 2 9 -8 4 -13 11 -12 15 2 14 -25 91 -35 98 -5 4 -7 8
-2 8 4 0 0 17 -9 37 -15 35 -21 57 -28 92 -1 8 -8 17 -14 19 -7 2 -9 8 -6 13
3 6 0 17 -7 25 -7 9 -14 22 -16 30 -2 8 -5 20 -7 27 -2 6 -7 22 -11 34 -4 13
-10 21 -14 19 -4 -3 -8 6 -9 20 -1 13 -9 35 -17 48 -8 12 -12 26 -8 29 3 4 1
7 -6 7 -7 0 -9 5 -6 10 3 6 1 10 -5 10 -6 0 -8 4 -5 10 3 5 1 10 -4 10 -6 0
-11 9 -11 19 0 10 -7 22 -16 25 -8 3 -12 11 -8 17 3 6 1 15 -5 19 -7 4 -13 16
-14 28 0 12 -3 19 -6 16 -3 -2 -11 8 -18 23 -7 16 -17 35 -21 43 -28 47 -44
79 -60 112 -9 21 -20 38 -24 38 -5 0 -8 7 -8 15 0 8 -5 15 -11 15 -5 0 -8 4
-5 9 3 5 -1 14 -9 21 -8 7 -15 19 -15 26 0 8 -4 14 -10 14 -5 0 -10 9 -10 20
0 11 -7 20 -15 20 -9 0 -12 6 -8 17 4 9 2 14 -3 11 -5 -4 -18 12 -29 34 -11
22 -25 43 -32 45 -7 3 -13 11 -13 18 0 10 -10 25 -50 73 -6 6 -7 12 -3 12 4 1
-2 9 -14 19 -12 10 -19 21 -16 25 4 3 1 6 -5 6 -7 0 -12 7 -12 15 0 8 -4 15
-10 15 -5 0 -10 7 -10 16 0 8 -4 12 -10 9 -5 -3 -10 3 -10 15 0 12 -5 18 -10
15 -6 -3 -10 -1 -10 4 0 13 -68 105 -81 109 -5 2 -9 9 -9 16 0 6 -8 19 -17 27
-34 31 -78 92 -75 103 2 6 0 8 -4 4 -9 -10 -35 12 -28 23 3 5 0 9 -6 9 -6 0
-29 18 -51 41 -21 22 -39 37 -39 32 0 -4 -9 6 -20 22 -12 18 -20 24 -21 15 0
-9 -4 -7 -11 8 -6 12 -15 22 -20 22 -5 0 -16 6 -23 13 -33 28 -45 37 -45 32 0
-3 -10 3 -22 15 -12 11 -31 20 -43 20 -29 0 -31 38 -2 50 12 5 18 9 14 9 -9 1
18 31 27 31 5 0 37 28 107 91 15 15 31 24 34 21 3 -3 8 4 12 16 3 12 9 19 14
16 5 -3 9 0 9 7 0 7 3 10 6 7 3 -3 21 9 40 28 19 19 34 31 34 27 1 -4 7 3 15
17 8 14 14 21 15 17 0 -12 30 20 30 32 0 6 8 8 18 4 9 -3 14 -3 10 2 -4 4 9
21 29 36 20 16 33 29 30 29 -4 0 4 10 16 23 12 13 25 22 30 20 4 -2 7 2 7 10
0 8 11 22 25 31 14 9 25 24 25 33 0 9 3 14 6 10 7 -6 34 17 34 29 0 4 12 18
28 32 15 13 20 21 12 17 -9 -4 -9 -1 3 8 9 8 17 19 17 25 0 6 6 9 14 6 10 -4
28 25 23 39 0 1 16 19 36 41 20 21 35 42 32 46 -3 4 2 11 11 14 8 3 12 10 9
16 -3 5 0 10 8 10 8 0 17 8 21 18 3 9 15 31 26 47 11 17 23 36 26 42 3 7 11
10 17 6 5 -3 7 -1 3 5 -3 6 -1 14 5 17 5 4 8 14 5 22 -3 8 -2 11 3 8 9 -5 27
32 23 48 -1 5 2 6 7 3 5 -4 18 11 27 31 10 21 22 41 27 44 5 4 7 11 3 17 -3 5
1 13 10 16 8 3 12 10 9 16 -3 5 -1 10 5 10 7 0 10 7 6 15 -3 8 0 14 6 12 7 -1
13 5 14 13 2 28 16 60 25 60 5 0 9 9 9 19 0 11 5 23 11 26 6 4 8 13 5 20 -2 7
2 16 9 19 8 3 12 12 9 21 -3 8 -1 15 5 15 6 0 10 3 9 8 -1 4 3 17 10 29 7 13
10 23 6 23 -3 0 0 8 7 17 12 14 12 15 0 9 -9 -6 -8 -1 3 16 9 14 13 28 9 31
-3 4 -1 7 5 7 7 0 12 9 12 20 0 12 6 33 14 48 7 15 12 38 10 51 -3 17 0 22 10
18 12 -5 13 -1 6 18 -6 16 -5 25 2 27 6 2 11 16 12 30 1 14 8 34 16 44 13 16
13 17 0 9 -13 -8 -13 -7 -1 8 11 14 11 17 0 17 -11 0 -11 2 -2 8 7 5 14 20 15
35 1 15 6 27 11 27 5 0 4 6 -2 14 -7 9 -8 17 -2 20 5 3 8 17 6 31 -1 14 3 25
9 25 6 0 4 5 -4 10 -11 7 -11 10 -2 10 7 0 11 4 7 9 -3 5 -1 12 5 16 7 4 7 12
0 26 -6 10 -7 19 -2 19 4 0 9 28 11 63 4 103 6 117 15 117 5 0 4 6 -3 13 -8
10 -7 17 1 25 9 9 9 12 0 12 -8 0 -9 7 -2 25 7 18 6 25 -3 25 -7 0 -8 3 -2 8
8 6 12 74 5 92 -6 15 -5 62 2 73 4 6 2 17 -4 24 -7 9 -7 13 2 13 10 0 10 3 1
14 -9 10 -9 16 -1 21 8 5 6 14 -7 28 -10 11 -13 17 -6 14 14 -9 5 71 -11 92
-8 11 -8 13 1 8 8 -5 11 0 10 13 -1 11 -4 20 -7 20 -3 0 -6 17 -8 38 -3 56 -8
87 -13 97 -3 6 -6 26 -8 45 -2 19 -6 37 -10 40 -6 5 -7 13 -13 68 -1 12 -5 22
-8 22 -5 0 -9 18 -12 58 -1 6 -6 12 -12 12 -6 0 -5 4 2 9 11 7 10 9 -3 15 -9
3 -13 11 -10 16 4 6 1 18 -7 27 -7 9 -12 17 -10 17 7 2 -11 62 -25 85 -9 14
-10 21 -3 16 7 -4 5 4 -4 17 -9 14 -13 28 -9 31 3 4 1 7 -6 7 -7 0 -9 5 -6 10
3 6 1 10 -6 10 -7 0 -9 3 -6 7 4 3 0 17 -9 31 -9 13 -11 21 -5 18 6 -4 2 9
-10 28 -12 20 -17 36 -12 36 4 0 2 4 -5 9 -7 4 -14 14 -15 22 -2 8 -6 20 -10
27 -5 6 -5 12 -1 12 4 0 -1 7 -12 16 -10 8 -14 13 -7 10 8 -5 8 0 0 19 -7 14
-16 25 -20 25 -5 0 -6 4 -2 9 3 5 1 12 -4 16 -6 3 -7 13 -4 22 4 10 2 14 -4
10 -17 -10 -22 16 -7 31 7 7 16 12 19 12 4 -1 16 9 29 22 12 13 29 24 37 26 7
2 16 8 17 13 2 5 8 7 13 3 5 -3 9 2 9 10 0 10 6 13 15 10 8 -4 17 1 21 10 3 9
10 13 15 10 5 -3 9 0 9 7 0 7 3 10 6 6 6 -6 17 1 54 35 10 9 21 13 25 10 3 -4
9 -2 13 4 4 6 31 26 59 46 29 19 51 38 48 41 -3 4 -2 5 1 2 9 -6 47 15 40 22
-5 6 14 20 53 39 24 12 50 42 43 50 -4 4 -2 4 5 1 6 -4 25 6 41 22 16 17 32
27 36 24 3 -4 6 1 6 11 0 9 4 15 9 11 5 -3 12 4 16 15 3 11 9 19 13 17 4 -1
22 13 40 31 18 17 38 32 44 32 6 0 8 3 5 7 -4 3 8 17 25 30 18 12 29 23 25 23
-4 0 -2 6 5 14 7 8 16 12 21 9 4 -2 7 1 7 7 0 6 14 24 30 40 17 17 28 30 24
30 -4 0 10 16 30 35 21 19 34 35 30 35 -4 0 1 8 12 18 10 10 37 45 59 78 22
32 47 65 55 72 13 12 13 13 0 7 -8 -4 -4 3 9 14 13 12 20 21 17 21 -4 0 1 11
10 25 9 14 13 25 10 25 -4 0 2 10 13 22 11 11 18 25 15 30 -3 4 1 10 8 13 8 3
15 15 15 27 1 12 6 24 11 27 5 3 13 21 17 39 3 17 11 32 16 32 6 0 7 5 4 10
-3 6 -1 10 5 10 6 0 9 4 5 9 -3 5 2 16 10 25 8 8 11 17 6 20 -5 4 1 26 15 51
15 29 19 45 11 45 -7 0 -8 3 -2 8 9 6 14 18 19 47 1 6 4 15 7 20 3 6 6 26 8
45 2 19 8 41 13 48 7 8 7 12 -1 12 -7 0 -9 5 -5 11 4 7 8 39 10 72 2 33 6 62
8 64 2 3 1 17 -4 33 -6 19 -4 35 6 48 8 12 10 23 5 26 -11 7 -9 65 2 84 5 6 4
12 -1 12 -10 0 -10 55 0 65 4 4 0 18 -9 31 -11 18 -12 24 -3 24 9 0 7 7 -6 22
-10 12 -14 18 -7 14 9 -5 12 2 10 24 -1 16 -4 30 -7 30 -3 0 -6 19 -8 43 -4
58 -7 75 -15 83 -4 4 -1 14 6 22 9 13 9 14 0 8 -9 -5 -13 1 -13 18 0 14 -5 26
-11 26 -5 0 -7 5 -4 10 4 6 3 16 -2 23 -5 7 -9 19 -8 27 0 8 -2 17 -5 20 -9 8
-50 89 -50 100 0 5 -10 20 -22 34 -13 13 -29 31 -36 40 -7 9 -19 13 -25 10 -7
-4 -9 -4 -5 1 8 9 -31 42 -44 37 -5 -1 -8 2 -8 7 0 10 -74 7 -107 -4 -13 -4
-20 -12 -16 -18 4 -6 0 -8 -10 -4 -10 3 -17 2 -17 -3 0 -6 -6 -9 -12 -7 -7 1
-12 -4 -10 -11 1 -8 -2 -11 -7 -8 -5 3 -20 -3 -34 -14 -14 -11 -30 -20 -37
-20 -6 0 -8 -4 -5 -10 3 -5 1 -10 -5 -10 -12 0 -113 -78 -118 -91 -2 -5 -10
-9 -18 -9 -8 0 -14 -4 -14 -9 0 -5 -16 -19 -35 -32 -19 -13 -33 -30 -30 -37 3
-7 1 -10 -4 -7 -5 3 -12 1 -16 -5 -4 -6 -11 -7 -17 -4 -6 4 -9 3 -6 -2 3 -5
-22 -34 -54 -65 -32 -31 -58 -54 -58 -52 0 3 -16 -14 -35 -37 -19 -23 -35 -38
-35 -34 0 4 -22 -17 -50 -46 -27 -29 -50 -50 -50 -47 0 4 -22 -15 -50 -43 -27
-28 -50 -48 -50 -46 0 3 -12 -7 -27 -22 -15 -15 -27 -30 -25 -34 1 -5 -1 -7
-6 -6 -13 3 -42 -14 -37 -22 3 -4 -7 -11 -20 -14 -14 -4 -23 -11 -20 -16 6 -9
-2 -12 -22 -9 -3 0 -10 -6 -15 -15 -5 -9 -16 -16 -23 -16 -8 0 -15 -4 -15 -8
0 -5 -12 -15 -27 -23 -16 -8 -34 -20 -41 -27 -8 -7 -18 -10 -23 -7 -5 4 -9 1
-9 -4 0 -6 -7 -11 -15 -11 -8 0 -15 -5 -15 -11 0 -6 -6 -9 -14 -6 -8 3 -16 1
-18 -4 -2 -6 -10 -11 -18 -13 -8 -1 -25 -8 -37 -14 -13 -7 -23 -10 -23 -6 0 3
-7 1 -15 -6 -8 -7 -15 -9 -15 -5 0 4 -7 2 -15 -5 -9 -7 -18 -10 -22 -7 -3 4
-12 2 -19 -4 -8 -6 -31 -13 -51 -16 -21 -3 -44 -10 -52 -17 -12 -9 -13 -8 -6
4 7 12 6 13 -6 4 -8 -6 -21 -12 -29 -12 -32 -2 -68 -9 -80 -17 -9 -6 -11 -4
-5 5 6 10 4 11 -6 4 -22 -14 -391 -15 -408 -1 -11 9 -13 9 -8 0 8 -13 -40 -13
-62 1 -10 7 -12 5 -6 -5 8 -12 6 -12 -8 0 -9 7 -17 9 -17 4 0 -5 -9 -9 -20 -9
-11 0 -20 4 -20 8 0 5 -9 4 -20 -2 -11 -6 -20 -7 -20 -2 0 4 -9 8 -20 8 -11 0
-20 -4 -20 -9 0 -4 -6 -5 -12 -1 -13 8 -21 9 -133 18 -33 3 -60 5 -60 6 0 1
-20 3 -45 6 -54 6 -70 9 -92 18 -9 4 -22 5 -28 1 -5 -3 -10 -2 -10 3 0 5 -10
8 -22 8 -13 -1 -28 1 -33 5 -6 5 -28 9 -48 11 -20 1 -37 6 -37 10 0 4 -11 8
-23 8 -13 0 -27 3 -31 7 -8 8 -32 14 -63 16 -12 0 -19 5 -17 9 3 4 -4 8 -15 8
-10 0 -22 6 -24 13 -4 9 -6 9 -6 -1 -1 -10 -8 -9 -31 3 -16 9 -30 13 -30 9 0
-4 -6 -1 -14 5 -13 11 -46 22 -73 23 -7 1 -13 6 -13 11 0 5 -7 6 -16 3 -8 -3
-12 -2 -9 4 3 6 -1 11 -9 11 -16 1 -28 4 -43 9 -5 1 -11 2 -15 1 -5 0 -8 4 -8
10 0 5 -4 7 -10 4 -5 -3 -10 -1 -10 6 0 7 -3 10 -6 7 -3 -4 -24 2 -47 12 -23
10 -45 16 -49 14 -4 -3 -8 0 -8 5 0 6 -7 11 -15 11 -8 0 -15 4 -15 8 0 7 -15
11 -57 14 -7 1 -10 5 -8 9 4 5 -16 15 -40 18 -3 0 -19 8 -35 16 -17 9 -30 13
-30 10 0 -4 -7 1 -16 9 -8 9 -20 14 -25 11 -5 -4 -9 -2 -9 4 0 6 -7 8 -15 5
-8 -4 -15 -1 -15 6 0 6 -4 9 -9 5 -5 -3 -12 -1 -16 5 -4 6 -11 8 -16 5 -5 -4
-9 -1 -9 6 0 7 -3 9 -7 6 -3 -4 -12 -2 -20 4 -7 6 -13 8 -13 5 0 -4 -10 -1
-22 6 -13 7 -29 11 -35 10 -7 -2 -13 1 -13 6 0 6 -13 12 -30 16 -16 3 -43 9
-60 12 -16 4 -30 11 -30 16 0 6 -11 8 -25 6 -13 -3 -26 -1 -27 4 -2 4 -13 10
-26 13 -12 3 -32 7 -44 11 -40 9 -72 15 -90 17 -10 1 -18 4 -18 8 0 4 -11 6
-25 4 -14 -1 -28 1 -30 5 -3 4 -18 6 -35 5 -16 -1 -30 1 -30 6 0 5 -10 9 -22
9 -74 -1 -216 8 -226 13 -6 4 -13 3 -16 -2 -4 -5 -14 -8 -24 -6 -9 1 -23 -3
-31 -9 -11 -8 -13 -8 -7 2 4 7 1 12 -8 12 -9 0 -16 -5 -16 -11 0 -8 -4 -9 -13
0 -8 6 -16 8 -19 6 -5 -5 -21 -9 -83 -21 -16 -3 -36 -10 -44 -17 -8 -7 -22
-11 -33 -9 -10 2 -18 -2 -18 -7 0 -6 -7 -11 -16 -11 -9 0 -28 -9 -44 -20 l-28
-20 -16 25 c-9 13 -16 30 -16 38 0 7 -4 17 -10 23 -5 5 -11 22 -12 37 -1 15
-5 27 -8 27 -5 0 -9 18 -12 58 -1 6 -4 12 -8 12 -4 0 -6 11 -5 25 2 14 -1 27
-5 30 -5 3 -6 13 -3 22 5 12 3 14 -8 8 -12 -8 -12 -6 0 8 7 9 9 17 4 17 -5 0
-10 17 -11 37 -2 20 -8 44 -15 52 -9 12 -9 13 1 7 6 -4 12 -3 12 3 0 5 -3 12
-8 14 -4 3 -8 31 -10 63 -2 32 -7 65 -12 74 -6 11 -5 21 2 28 8 8 8 12 2 12
-6 0 -10 10 -9 23 1 12 -3 25 -9 29 -7 5 -7 8 2 8 7 0 11 3 9 8 -3 4 -6 39 -8
77 -2 39 -8 76 -13 84 -8 11 -8 13 1 8 8 -5 12 10 13 55 3 105 6 144 15 157 4
8 2 17 -6 22 -9 5 -10 9 -2 9 15 0 10 45 -8 62 -18 18 -119 19 -126 2z"/>
</g>
</svg>
